<svg width="48" height="48" xmlns="http://www.w3.org/2000/svg">

 <g>
  <title>background</title>
  <rect fill="none" id="canvas_background" height="50" width="50" y="-1" x="-1"/>
 </g>
 <g>
  <title>Layer 1</title>
  <path id="svg_1" d="m24.000011,0.000011c-13.234,0 -24,10.767 -24,24s10.766,24 24,24s24,-10.767 24,-24s-10.766,-24 -24,-24zm20,24c0,0.336 -0.034,0.664 -0.05,0.997c-4.178,-0.151 -8.717,0.395 -13.318,1.593c-0.394,-1.82 -0.886,-3.646 -1.481,-5.452c-0.329,-1.007 -0.703,-2.003 -1.095,-2.99c4.388,-2.048 8.15,-4.602 10.889,-7.393c3.134,3.532 5.055,8.163 5.055,13.245zm-7.994,-15.957c-2.376,2.401 -5.673,4.626 -9.558,6.446c-1.869,-3.836 -4.13,-7.234 -6.654,-10.035c1.358,-0.292 2.763,-0.454 4.206,-0.454c4.508,0 8.658,1.517 12.006,4.043zm-20.389,-2.177c2.71,2.672 5.148,6.133 7.133,10.157c-0.986,0.365 -1.995,0.714 -3.042,1.03c-5.226,1.558 -10.489,2.212 -15.034,1.887c1.523,-5.81 5.588,-10.588 10.943,-13.074zm-11.617,18.134c0,-0.373 0.036,-0.738 0.056,-1.106c0.953,0.077 1.922,0.13 2.924,0.13c4.369,0 9.152,-0.729 13.875,-2.139c1.212,-0.364 2.375,-0.772 3.51,-1.198c0.352,0.89 0.687,1.789 0.985,2.698c0.585,1.776 1.067,3.57 1.441,5.354c-7.071,2.407 -13.2,6.164 -16.952,10.368c-3.606,-3.619 -5.839,-8.607 -5.839,-14.107zm8.932,16.644c3.181,-3.521 8.39,-6.715 14.516,-8.893c0.518,4.377 0.322,8.534 -0.556,12.016c-0.947,0.138 -1.907,0.233 -2.892,0.233c-4.091,0 -7.896,-1.239 -11.068,-3.356zm18.287,1.987c0.636,-3.668 0.673,-7.81 0.102,-12.081c4.129,-1.099 8.287,-1.641 12.025,-1.564c-1.616,6.259 -6.179,11.331 -12.127,13.645z"/>
 </g>
</svg>