<svg width="16" height="13.5" xmlns="http://www.w3.org/2000/svg">

 <g>
  <title>background</title>
  <rect fill="none" id="canvas_background" height="15.5" width="18" y="-1" x="-1"/>
 </g>
 <g>
  <title>Layer 1</title>
  <path id="svg_1" d="m16,2.650001l-2.8,0l0,-2.6l-0.6,0l0,2.6l-2.7,0l0,0.8l2.7,0l0,2.6l0.6,0l0,-2.6l2.8,0l0,-0.8z" fill="#444444"/>
  <path id="svg_2" d="m6.65,7.687501c-0.4,-0.2 -1.1,-0.9 -1.1,-1.3s0.1,-0.7 0.8,-1.2c0.7,-0.5 1.2,-1.2 1.2,-2.1c0,-1.1 -0.5,-2.1 -1.3,-2.4l1.3,0l0.9,-0.7c0,0 -3.1,0 -4.2,0c-1.9,0 -3.6,1.4 -3.6,3.1s1.3,3 3.2,3c0.1,0 0.3,0 0.4,0c-0.2,0.2 -0.2,0.4 -0.2,0.7c0,0.5 0.3,0.8 0.6,1.2c-0.2,0 -0.5,0 -0.7,0c-2.3,0 -4.1,1.5 -4.1,3s2,2.5 4.3,2.5c2.6,0 4.1,-1.5 4.1,-3c-0.1,-1.3 -0.5,-2 -1.6,-2.8zm-2.2,-2.1c-1.1,0 -2.1,-1.2 -2.3,-2.6s0.5,-2.5 1.6,-2.5c1.1,0 2.1,1.2 2.3,2.6s-0.5,2.6 -1.6,2.5zm-0.4,7.2c-1.6,0 -2.8,-1 -2.8,-2.2s1.4,-2.2 3,-2.2c0.4,0 0.7,0.1 1,0.2c0.9,0.6 1.5,0.9 1.7,1.6c0,0.1 0.1,0.3 0.1,0.4c0,1.2 -0.8,2.2 -3,2.2z" fill="#444444"/>
 </g>
</svg>