<svg width="16" height="13" xmlns="http://www.w3.org/2000/svg">

 <g>
  <title>background</title>
  <rect fill="none" id="canvas_background" height="15" width="18" y="-1" x="-1"/>
 </g>
 <g>
  <title>Layer 1</title>
  <path id="svg_1" d="m16.0625,1.4375c-0.6,0.3 -1.2,0.4 -1.9,0.5c0.7,-0.4 1.2,-1 1.4,-1.8c-0.6,0.4 -1.3,0.6 -2.1,0.8c-0.6,-0.6 -1.5,-1 -2.4,-1c-1.7,0 -3.2,1.5 -3.2,3.3c0,0.3 0,0.5 0.1,0.7c-2.7,-0.1 -5.2,-1.4 -6.8,-3.4c-0.3,0.5 -0.4,1 -0.4,1.7c0,1.1 0.6,2.1 1.5,2.7c-0.5,0 -1,-0.2 -1.5,-0.4c0,0 0,0 0,0c0,1.6 1.1,2.9 2.6,3.2c-0.3,0.1 -0.6,0.1 -0.9,0.1c-0.2,0 -0.4,0 -0.6,-0.1c0.4,1.3 1.6,2.3 3.1,2.3c-1.1,0.9 -2.5,1.4 -4.1,1.4c-0.3,0 -0.5,0 -0.8,0c1.5,0.9 3.2,1.5 5,1.5c6,0 9.3,-5 9.3,-9.3c0,-0.1 0,-0.3 0,-0.4c0.7,-0.5 1.3,-1.1 1.7,-1.8z" fill="#444444"/>
 </g>
</svg>